<svg xmlns="http://www.w3.org/2000/svg" width="128" height="128" viewBox="0 0 24 24">
  <path fill="#d4a26a" d="M1,11l0,8c0,1.1,0.9,2,2,2h0c1.1,0,2-0.9,2-2v-8c0-1.1-0.9-2-2-2h0C1.9,9,1,9.9,1,11z M5,11l0,8c0,1.1,0.9,2,2,2h0 c1.1,0,2-0.9,2-2v-8c0-1.1-0.9-2-2-2h0C5.9,9,5,9.9,5,11z M22.3,11.85c-0.2-0.92-0.94-1.62-1.8-1.62h-3.5v-1.23h1.95 c0.76,0,1.39-0.63,1.39-1.39V6.84c0-0.76-0.63-1.39-1.39-1.39H17V3.31C17,2.59,16.41,2,15.69,2H8.31C7.59,2,7,2.59,7,3.31v2.14 L7,7.77v2.46H0v2h7c0,0.92,0,3.54,0,3.54v1.08c0,0.72,0.59,1.31,1.31,1.31h7.38c0.72,0,1.31-0.59,1.31-1.31v-1.08 c0,0,0-2.56,0-3.46h2.28l1.45,5.32c0.15,0.55,0.66,0.93,1.23,0.93h0c0.82,0,1.45-0.74,1.29-1.54L22.3,11.85z"/>
</svg> 